<svg width="128" height="109" viewBox="0 0 128 109" fill="none" xmlns="http://www.w3.org/2000/svg">
<path opacity="0.72" d="M127.792 49.9147C127.729 49.3708 127.433 48.8658 126.961 48.4961C126.488 48.126 125.872 47.917 125.229 47.9091H61.3798C59.6459 47.9451 57.9532 48.3663 56.47 49.1313C54.9868 49.8962 53.7643 50.978 52.9246 52.2691C52.147 53.4237 51.738 54.7314 51.738 56.0623C51.738 57.3929 52.147 58.7006 52.9246 59.8555C53.1465 60.2184 53.4758 60.5261 53.8803 60.7479C54.2848 60.9695 54.7498 61.0978 55.2302 61.1199H125.383C126.026 61.1117 126.642 60.9027 127.114 60.5329C127.587 60.1629 127.883 59.6579 127.946 59.1143C127.946 57.4139 127.946 55.9751 127.946 54.7543C127.946 53.5335 127.945 51.5715 127.792 49.9147Z" fill="#3056D3"/>
<path d="M127.742 49.9147C127.691 49.3746 127.406 48.8702 126.942 48.4993C126.478 48.1285 125.867 47.9181 125.231 47.9091H114.982C114.623 47.9124 114.268 47.9802 113.941 48.108C113.614 48.2355 113.323 48.4203 113.086 48.6503C112.847 48.8713 112.668 49.134 112.562 49.4204C112.456 49.7068 112.425 50.0092 112.471 50.3071C112.471 51.7023 112.471 53.0975 112.471 54.6671C112.458 61.6243 110.386 68.4667 106.445 74.5626C102.505 80.6587 96.8224 85.8119 89.9237 89.5471C89.2063 89.9395 88.5404 90.4191 87.7717 90.7679C84.0114 92.5898 79.9772 93.9686 75.7803 94.8662L82.4936 105.025C82.7213 105.361 83.0506 105.639 83.4468 105.831C83.8433 106.022 84.2923 106.12 84.748 106.115C85.019 106.157 85.297 106.157 85.5679 106.115L87.2077 105.548L88.6938 105.025C90.9607 104.224 93.1684 103.307 95.3046 102.278C105.296 97.4896 113.597 90.512 119.346 82.0702C125.096 73.6287 128.083 64.031 127.998 54.2747C127.998 52.6615 127.895 51.3971 127.742 49.9147Z" fill="#3056D3"/>
<path d="M91.4703 91.2984C91.126 90.8011 90.5786 90.4286 89.9326 90.252H89.2152C88.7703 90.255 88.3322 90.3444 87.9341 90.5136C80.627 94.0512 72.3595 95.9001 63.9523 95.8764C51.0494 95.8532 38.6829 91.4821 29.5591 83.7194C20.4354 75.9564 15.2977 65.4346 15.2706 54.4564C15.2977 43.4782 20.4354 32.9562 29.5591 25.1935C38.6829 17.4307 51.0494 13.0594 63.9523 13.0364C72.3556 13.0387 80.6155 14.8858 87.9341 18.3992C88.3168 18.6058 88.7623 18.7119 89.2152 18.7044H89.7789C90.1302 18.6384 90.4617 18.5114 90.7528 18.3313C91.0436 18.1513 91.2883 17.922 91.4703 17.658L96.5946 10.0716C96.9335 9.56704 97.0267 8.96969 96.8544 8.40744C96.6818 7.84516 96.2574 7.36268 95.6719 7.0632C86.0265 2.42554 75.134 -0.00782229 64.0551 1.88905e-05C47.0747 0.0230792 30.7979 5.77242 18.7911 15.9882C6.78436 26.2039 0.0271032 40.0526 0 54.5C0.0271032 68.9472 6.78436 82.7961 18.7911 93.0119C30.7979 103.228 47.0747 108.977 64.0551 109C75.134 109.008 86.0265 106.574 95.6719 101.937C95.9653 101.797 96.2225 101.608 96.4284 101.382C96.634 101.156 96.7846 100.897 96.8704 100.62C96.9566 100.344 96.9767 100.055 96.9293 99.7723C96.8819 99.4892 96.7679 99.217 96.5946 98.972L91.4703 91.2984Z" fill="#3056D3"/>
<path opacity="0.56" d="M71.2709 60.9455H55.0781C54.6189 60.9177 54.174 60.7961 53.7813 60.5912C53.389 60.3863 53.0604 60.104 52.8231 59.7683L82.5961 104.633C82.8242 104.969 83.1531 105.247 83.5496 105.438C83.9458 105.63 84.3948 105.728 84.8505 105.723C85.1388 105.764 85.4337 105.764 85.722 105.723C89.1079 104.685 92.3827 103.402 95.5096 101.886C95.803 101.746 96.0595 101.557 96.2654 101.331C96.4714 101.105 96.6216 100.846 96.7077 100.569C96.7936 100.293 96.8137 100.004 96.7663 99.7214C96.7189 99.4382 96.6052 99.166 96.4317 98.921L71.2709 60.9455Z" fill="#3056D3"/>
</svg>
