<svg width="384" height="67" viewBox="0 0 384 67" fill="none" xmlns="http://www.w3.org/2000/svg">
<g clip-path="url(#clip0_1_3)">
<path opacity="0.72" d="M65.8926 30.7396C65.8602 30.4053 65.7078 30.0949 65.4646 29.8676C65.2211 29.6401 64.9038 29.5117 64.5731 29.5068H31.6929C30.8 29.5289 29.9283 29.7879 29.1646 30.258C28.4008 30.7282 27.7712 31.3932 27.3388 32.1868C26.9383 32.8965 26.7277 33.7003 26.7277 34.5184C26.7277 35.3363 26.9383 36.1401 27.3388 36.85C27.4531 37.0731 27.6226 37.2622 27.8309 37.3986C28.0392 37.5347 28.2787 37.6136 28.5261 37.6272H64.6524C64.9831 37.6222 65.3004 37.4937 65.5437 37.2664C65.7872 37.0389 65.9394 36.7286 65.9719 36.3944C65.9719 35.3492 65.9719 34.4648 65.9719 33.7144C65.9719 32.964 65.9717 31.758 65.8926 30.7396Z" fill="#3056D3"/>
<path d="M65.8668 30.7396C65.8406 30.4076 65.6938 30.0976 65.4549 29.8696C65.2159 29.6416 64.9017 29.5123 64.5738 29.5068H59.296C59.111 29.5088 58.9283 29.5505 58.76 29.6291C58.5918 29.7075 58.4419 29.821 58.3197 29.9624C58.1966 30.0983 58.1044 30.2597 58.0498 30.4358C57.9951 30.6118 57.9793 30.7977 58.003 30.9808C58.003 31.8384 58.003 32.696 58.003 33.6608C57.9964 37.9373 56.9293 42.1432 54.9 45.8902C52.8707 49.6373 49.9445 52.8049 46.392 55.1008C46.0225 55.342 45.6796 55.6368 45.2838 55.8512C43.3474 56.9711 41.2699 57.8187 39.1087 58.3704L42.5658 64.6148C42.683 64.8212 42.8526 64.9922 43.0566 65.1099C43.2608 65.2277 43.492 65.288 43.7267 65.2848C43.8662 65.3104 44.0094 65.3104 44.1489 65.2848L44.9934 64.9364L45.7586 64.6148C46.926 64.1224 48.0629 63.5586 49.1629 62.9264C54.3079 59.9829 58.5829 55.6939 61.5435 50.5049C64.5044 45.3161 66.0427 39.4166 65.999 33.4196C65.999 32.428 65.946 31.6508 65.8668 30.7396Z" fill="#3056D3"/>
<path d="M47.1884 56.1773C47.0111 55.8716 46.7292 55.6427 46.3966 55.5341H46.0271C45.798 55.536 45.5724 55.5909 45.3674 55.6949C41.6045 57.8694 37.347 59.0059 33.0176 58.9913C26.3731 58.9771 20.0049 56.2902 15.3064 51.5187C10.608 46.7469 7.96233 40.2794 7.94838 33.5313C7.96233 26.7833 10.608 20.3156 15.3064 15.544C20.0049 10.7724 26.3731 8.08545 33.0176 8.07128C37.3451 8.07268 41.5986 9.20807 45.3674 11.3677C45.5645 11.4947 45.7939 11.5599 46.0271 11.5553H46.3174C46.4983 11.5147 46.669 11.4367 46.8189 11.326C46.9687 11.2153 47.0947 11.0744 47.1884 10.9121L49.8273 6.24888C50.0017 5.93874 50.0497 5.57156 49.961 5.22596C49.8721 4.88034 49.6536 4.58376 49.3521 4.39968C44.3851 1.549 38.7758 0.0532668 33.0706 0.0580866C24.3263 0.0722612 15.9444 3.60626 9.76131 9.88567C3.57829 16.1651 0.0985519 24.6776 0.0845947 33.5581C0.0985519 42.4385 3.57829 50.9512 9.76131 57.2306C15.9444 63.51 24.3263 67.0439 33.0706 67.0581C38.7758 67.0628 44.3851 65.5672 49.3521 62.7165C49.5032 62.6304 49.6356 62.5145 49.7417 62.3755C49.8475 62.2365 49.9251 62.0773 49.9693 61.9073C50.0136 61.7373 50.024 61.5601 49.9996 61.3861C49.9752 61.212 49.9165 61.0447 49.8273 60.8941L47.1884 56.1773Z" fill="#3056D3"/>
<path opacity="0.56" d="M36.7865 37.52H28.4478C28.2113 37.5029 27.9822 37.4282 27.78 37.3023C27.5779 37.1763 27.4087 37.0028 27.2865 36.7964L42.6185 64.3736C42.736 64.5801 42.9053 64.751 43.1095 64.8689C43.3135 64.9867 43.5448 65.047 43.7795 65.0436C43.9279 65.0691 44.0798 65.0691 44.2282 65.0436C45.9719 64.4061 47.6583 63.617 49.2685 62.6852C49.4196 62.5991 49.5517 62.4832 49.6577 62.3442C49.7638 62.2053 49.8411 62.046 49.8855 61.876C49.9297 61.7062 49.9401 61.5288 49.9157 61.3547C49.8913 61.1807 49.8327 61.0134 49.7433 60.8628L36.7865 37.52Z" fill="#3056D3"/>
<path d="M102.261 32C101.871 30.8045 101.356 29.7332 100.717 28.7862C100.089 27.8274 99.3376 27.0107 98.4616 26.3359C97.5975 25.6612 96.6151 25.1463 95.5142 24.7912C94.4134 24.4361 93.206 24.2585 91.892 24.2585C89.7377 24.2585 87.7786 24.8149 86.0149 25.9276C84.2512 27.0402 82.8485 28.6797 81.8068 30.8459C80.7652 33.0121 80.2443 35.6695 80.2443 38.8182C80.2443 41.9669 80.7711 44.6243 81.8246 46.7905C82.8781 48.9567 84.3045 50.5961 86.1037 51.7088C87.9029 52.8215 89.9271 53.3778 92.1761 53.3778C94.2595 53.3778 96.0942 52.9339 97.6804 52.0462C99.2784 51.1465 100.521 49.88 101.409 48.2464C102.309 46.6011 102.759 44.6657 102.759 42.4403L104.108 42.7244H93.1705V38.8182H107.02V42.7244C107.02 45.7192 106.381 48.3234 105.102 50.5369C103.836 52.7505 102.084 54.4669 99.8466 55.6861C97.6212 56.8935 95.0644 57.4972 92.1761 57.4972C88.9564 57.4972 86.1274 56.7396 83.6889 55.2244C81.2623 53.7093 79.3684 51.5549 78.0071 48.7614C76.6577 45.9678 75.983 42.6534 75.983 38.8182C75.983 35.9418 76.3677 33.3553 77.1371 31.0589C77.9183 28.7507 79.0192 26.7857 80.4396 25.1641C81.8601 23.5424 83.541 22.2995 85.4822 21.4354C87.4235 20.5713 89.5601 20.1392 91.892 20.1392C93.8097 20.1392 95.5971 20.4292 97.2543 21.0092C98.9233 21.5774 100.409 22.3883 101.711 23.4418C103.025 24.4834 104.12 25.7322 104.996 27.1882C105.872 28.6323 106.475 30.2363 106.807 32H102.261ZM122.019 57.6392C120.291 57.6392 118.722 57.3137 117.314 56.6626C115.905 55.9998 114.787 55.0469 113.958 53.804C113.129 52.5492 112.715 51.0341 112.715 49.2585C112.715 47.696 113.023 46.4295 113.638 45.4588C114.254 44.4763 115.077 43.7069 116.106 43.1506C117.136 42.5942 118.273 42.1799 119.515 41.9077C120.77 41.6236 122.031 41.3987 123.297 41.233C124.955 41.0199 126.298 40.8601 127.328 40.7536C128.37 40.6352 129.127 40.4399 129.601 40.1676C130.086 39.8954 130.329 39.4219 130.329 38.7472V38.6051C130.329 36.8532 129.849 35.492 128.89 34.5213C127.943 33.5507 126.505 33.0653 124.576 33.0653C122.575 33.0653 121.007 33.5033 119.871 34.3793C118.734 35.2552 117.935 36.1903 117.474 37.1847L113.496 35.7642C114.206 34.107 115.153 32.8168 116.337 31.8935C117.533 30.9583 118.835 30.3073 120.243 29.9403C121.664 29.5616 123.061 29.3722 124.434 29.3722C125.31 29.3722 126.316 29.4787 127.452 29.6918C128.6 29.893 129.707 30.3132 130.773 30.9524C131.85 31.5916 132.743 32.5563 133.454 33.8466C134.164 35.1368 134.519 36.8651 134.519 39.0312V57H130.329V53.3068H130.116C129.831 53.8987 129.358 54.532 128.695 55.2067C128.032 55.8814 127.15 56.4555 126.05 56.929C124.949 57.4025 123.605 57.6392 122.019 57.6392ZM122.658 53.875C124.315 53.875 125.712 53.5495 126.849 52.8984C127.997 52.2474 128.861 51.407 129.441 50.3771C130.033 49.3473 130.329 48.2642 130.329 47.1278V43.2926C130.151 43.5057 129.76 43.701 129.157 43.8786C128.565 44.0443 127.878 44.1922 127.097 44.3224C126.328 44.4408 125.576 44.5473 124.842 44.642C124.12 44.7249 123.534 44.7959 123.084 44.8551C121.995 44.9972 120.977 45.228 120.03 45.5476C119.095 45.8554 118.338 46.3229 117.758 46.9503C117.189 47.5658 116.905 48.4062 116.905 49.4716C116.905 50.9276 117.444 52.0284 118.521 52.7741C119.61 53.508 120.989 53.875 122.658 53.875ZM142.735 57V20.6364H146.926V34.0597H147.281C147.589 33.5862 148.015 32.9825 148.559 32.2486C149.116 31.5028 149.909 30.84 150.939 30.2599C151.98 29.6681 153.389 29.3722 155.164 29.3722C157.461 29.3722 159.485 29.9463 161.237 31.0945C162.989 32.2427 164.356 33.8703 165.338 35.9773C166.321 38.0843 166.812 40.5701 166.812 43.4347C166.812 46.3229 166.321 48.8265 165.338 50.9453C164.356 53.0523 162.995 54.6858 161.255 55.8459C159.515 56.9941 157.508 57.5682 155.235 57.5682C153.484 57.5682 152.081 57.2782 151.027 56.6982C149.974 56.1063 149.163 55.4375 148.595 54.6918C148.027 53.9342 147.589 53.3068 147.281 52.8097H146.784V57H142.735ZM146.855 43.3636C146.855 45.4233 147.157 47.2403 147.76 48.8146C148.364 50.3771 149.246 51.6023 150.406 52.4901C151.566 53.366 152.986 53.804 154.667 53.804C156.419 53.804 157.881 53.3423 159.053 52.419C160.237 51.4839 161.124 50.2292 161.716 48.6548C162.32 47.0687 162.622 45.3049 162.622 43.3636C162.622 41.446 162.326 39.7178 161.734 38.179C161.154 36.6283 160.272 35.4032 159.088 34.5036C157.917 33.5921 156.443 33.1364 154.667 33.1364C152.963 33.1364 151.53 33.5684 150.37 34.4325C149.21 35.2848 148.334 36.4804 147.743 38.0192C147.151 39.5462 146.855 41.3277 146.855 43.3636ZM173.222 57V29.7273H177.27V33.8466H177.554C178.051 32.4972 178.951 31.4022 180.253 30.5618C181.555 29.7214 183.023 29.3011 184.657 29.3011C184.964 29.3011 185.349 29.3071 185.811 29.3189C186.272 29.3307 186.622 29.3485 186.858 29.3722V33.6335C186.716 33.598 186.391 33.5447 185.882 33.4737C185.385 33.3909 184.858 33.3494 184.301 33.3494C182.976 33.3494 181.792 33.6276 180.75 34.1839C179.721 34.7285 178.904 35.486 178.3 36.4567C177.708 37.4155 177.412 38.5104 177.412 39.7415V57H173.222ZM191.825 57V29.7273H196.016V57H191.825ZM193.956 25.1818C193.139 25.1818 192.435 24.9036 191.843 24.3473C191.263 23.791 190.973 23.1222 190.973 22.3409C190.973 21.5597 191.263 20.8909 191.843 20.3345C192.435 19.7782 193.139 19.5 193.956 19.5C194.773 19.5 195.471 19.7782 196.051 20.3345C196.643 20.8909 196.939 21.5597 196.939 22.3409C196.939 23.1222 196.643 23.791 196.051 24.3473C195.471 24.9036 194.773 25.1818 193.956 25.1818ZM215.125 57.5682C212.498 57.5682 210.231 56.9882 208.325 55.8281C206.431 54.6562 204.969 53.0227 203.939 50.9276C202.921 48.8205 202.412 46.3703 202.412 43.5767C202.412 40.7831 202.921 38.321 203.939 36.1903C204.969 34.0478 206.401 32.3788 208.236 31.1832C210.083 29.9759 212.237 29.3722 214.699 29.3722C216.12 29.3722 217.522 29.6089 218.907 30.0824C220.292 30.5559 221.553 31.3253 222.689 32.3906C223.826 33.4441 224.731 34.8409 225.406 36.581C226.081 38.321 226.418 40.4635 226.418 43.0085V44.7841H205.395V41.1619H222.157C222.157 39.6231 221.849 38.25 221.233 37.0426C220.63 35.8352 219.766 34.8823 218.641 34.1839C217.528 33.4856 216.214 33.1364 214.699 33.1364C213.03 33.1364 211.586 33.5507 210.367 34.3793C209.159 35.196 208.23 36.2614 207.579 37.5753C206.928 38.8892 206.603 40.2978 206.603 41.8011V44.2159C206.603 46.2756 206.958 48.0215 207.668 49.4538C208.39 50.8743 209.39 51.9574 210.669 52.7031C211.947 53.437 213.433 53.804 215.125 53.804C216.226 53.804 217.221 53.6501 218.108 53.3423C219.008 53.0227 219.783 52.5492 220.434 51.9219C221.085 51.2827 221.588 50.4896 221.944 49.5426L225.992 50.679C225.566 52.0521 224.85 53.2595 223.843 54.3011C222.837 55.331 221.594 56.1359 220.115 56.7159C218.635 57.2841 216.972 57.5682 215.125 57.5682ZM236.983 20.6364V57H232.792V20.6364H236.983ZM256.447 57H245.226V20.6364H256.944C260.472 20.6364 263.49 21.3643 266 22.8203C268.509 24.2644 270.433 26.3419 271.77 29.0526C273.108 31.7514 273.777 34.983 273.777 38.7472C273.777 42.535 273.102 45.7962 271.753 48.5305C270.403 51.2531 268.438 53.3482 265.858 54.8161C263.277 56.272 260.14 57 256.447 57ZM249.629 53.0938H256.163C259.17 53.0938 261.662 52.5137 263.638 51.3537C265.615 50.1937 267.089 48.5424 268.059 46.3999C269.03 44.2573 269.515 41.7064 269.515 38.7472C269.515 35.8116 269.036 33.2843 268.077 31.1655C267.118 29.0348 265.686 27.4013 263.78 26.2649C261.875 25.1167 259.501 24.5426 256.66 24.5426H249.629V53.0938ZM288.621 57.6392C286.892 57.6392 285.324 57.3137 283.915 56.6626C282.507 55.9998 281.388 55.0469 280.559 53.804C279.731 52.5492 279.317 51.0341 279.317 49.2585C279.317 47.696 279.624 46.4295 280.24 45.4588C280.855 44.4763 281.678 43.7069 282.708 43.1506C283.738 42.5942 284.874 42.1799 286.117 41.9077C287.372 41.6236 288.632 41.3987 289.899 41.233C291.556 41.0199 292.9 40.8601 293.93 40.7536C294.971 40.6352 295.729 40.4399 296.202 40.1676C296.688 39.8954 296.93 39.4219 296.93 38.7472V38.6051C296.93 36.8532 296.451 35.492 295.492 34.5213C294.545 33.5507 293.107 33.0653 291.177 33.0653C289.177 33.0653 287.608 33.5033 286.472 34.3793C285.336 35.2552 284.537 36.1903 284.075 37.1847L280.098 35.7642C280.808 34.107 281.755 32.8168 282.939 31.8935C284.134 30.9583 285.436 30.3073 286.845 29.9403C288.265 29.5616 289.662 29.3722 291.035 29.3722C291.911 29.3722 292.917 29.4787 294.054 29.6918C295.202 29.893 296.309 30.3132 297.374 30.9524C298.451 31.5916 299.345 32.5563 300.055 33.8466C300.765 35.1368 301.121 36.8651 301.121 39.0312V57H296.93V53.3068H296.717C296.433 53.8987 295.96 54.532 295.297 55.2067C294.634 55.8814 293.752 56.4555 292.651 56.929C291.55 57.4025 290.207 57.6392 288.621 57.6392ZM289.26 53.875C290.917 53.875 292.314 53.5495 293.45 52.8984C294.598 52.2474 295.462 51.407 296.042 50.3771C296.634 49.3473 296.93 48.2642 296.93 47.1278V43.2926C296.753 43.5057 296.362 43.701 295.758 43.8786C295.166 44.0443 294.48 44.1922 293.699 44.3224C292.929 44.4408 292.178 44.5473 291.444 44.642C290.722 44.7249 290.136 44.7959 289.686 44.8551C288.597 44.9972 287.579 45.228 286.632 45.5476C285.697 45.8554 284.939 46.3229 284.359 46.9503C283.791 47.5658 283.507 48.4062 283.507 49.4716C283.507 50.9276 284.046 52.0284 285.123 52.7741C286.212 53.508 287.591 53.875 289.26 53.875ZM312.959 20.6364V57H308.769V20.6364H312.959ZM320.634 57V29.7273H324.824V57H320.634ZM322.765 25.1818C321.948 25.1818 321.244 24.9036 320.652 24.3473C320.072 23.791 319.782 23.1222 319.782 22.3409C319.782 21.5597 320.072 20.8909 320.652 20.3345C321.244 19.7782 321.948 19.5 322.765 19.5C323.581 19.5 324.28 19.7782 324.86 20.3345C325.452 20.8909 325.748 21.5597 325.748 22.3409C325.748 23.1222 325.452 23.791 324.86 24.3473C324.28 24.9036 323.581 25.1818 322.765 25.1818Z" fill="black"/>
</g>
<defs>
<clipPath id="clip0_1_3">
<rect width="384" height="67" fill="white"/>
</clipPath>
</defs>
</svg>
