<svg width="442" height="471" viewBox="0 0 442 471" fill="none" xmlns="http://www.w3.org/2000/svg">
<rect width="442" height="471" fill="#F5F5F5"/>
<rect width="442" height="471" fill="white"/>
<g clip-path="url(#clip0_0_1)">
<path opacity="0.72" d="M142.39 211.74C142.357 211.405 142.198 211.095 141.946 210.868C141.693 210.64 141.364 210.512 141.02 210.507H106.88C105.953 210.529 105.048 210.788 104.255 211.258C103.462 211.728 102.808 212.393 102.359 213.187C101.943 213.896 101.725 214.7 101.725 215.518C101.725 216.336 101.943 217.14 102.359 217.85C102.478 218.073 102.654 218.262 102.87 218.399C103.086 218.535 103.335 218.614 103.592 218.627H141.103C141.446 218.622 141.775 218.494 142.028 218.266C142.281 218.039 142.439 217.729 142.473 217.394C142.473 216.349 142.473 215.465 142.473 214.714C142.473 213.964 142.472 212.758 142.39 211.74Z" fill="#3056D3"/>
<path d="M142.364 211.74C142.336 211.408 142.184 211.098 141.936 210.87C141.688 210.642 141.361 210.512 141.021 210.507H135.541C135.349 210.509 135.159 210.551 134.984 210.629C134.81 210.707 134.654 210.821 134.527 210.962C134.399 211.098 134.304 211.26 134.247 211.436C134.19 211.612 134.174 211.798 134.198 211.981C134.198 212.838 134.198 213.696 134.198 214.661C134.191 218.937 133.083 223.143 130.976 226.89C128.869 230.637 125.831 233.805 122.142 236.101C121.759 236.342 121.403 236.637 120.992 236.851C118.981 237.971 116.824 238.819 114.58 239.37L118.169 245.615C118.291 245.821 118.467 245.992 118.679 246.11C118.891 246.228 119.131 246.288 119.375 246.285C119.52 246.31 119.668 246.31 119.813 246.285L120.69 245.936L121.485 245.615C122.697 245.122 123.877 244.559 125.019 243.926C130.362 240.983 134.8 236.694 137.875 231.505C140.949 226.316 142.546 220.417 142.501 214.42C142.501 213.428 142.446 212.651 142.364 211.74Z" fill="#3056D3"/>
<path d="M122.969 237.177C122.785 236.872 122.492 236.643 122.147 236.534H121.763C121.525 236.536 121.291 236.591 121.078 236.695C117.171 238.869 112.751 240.006 108.255 239.991C101.356 239.977 94.7439 237.29 89.8654 232.519C84.9869 227.747 82.2398 221.279 82.2253 214.531C82.2398 207.783 84.9869 201.316 89.8654 196.544C94.7439 191.772 101.356 189.085 108.255 189.071C112.749 189.073 117.165 190.208 121.078 192.368C121.283 192.495 121.521 192.56 121.763 192.555H122.065C122.253 192.515 122.43 192.437 122.586 192.326C122.741 192.215 122.872 192.074 122.969 191.912L125.709 187.249C125.89 186.939 125.94 186.572 125.848 186.226C125.756 185.88 125.529 185.584 125.216 185.4C120.058 182.549 114.234 181.053 108.31 181.058C99.2309 181.072 90.5277 184.606 84.1078 190.886C77.6878 197.165 74.0747 205.678 74.0602 214.558C74.0747 223.438 77.6878 231.951 84.1078 238.231C90.5277 244.51 99.2309 248.044 108.31 248.058C114.234 248.063 120.058 246.567 125.216 243.717C125.373 243.63 125.51 243.515 125.62 243.375C125.73 243.236 125.811 243.077 125.857 242.907C125.903 242.737 125.913 242.56 125.888 242.386C125.863 242.212 125.802 242.045 125.709 241.894L122.969 237.177Z" fill="#3056D3"/>
<path opacity="0.56" d="M112.169 218.52H103.51C103.265 218.503 103.027 218.428 102.817 218.302C102.607 218.176 102.432 218.003 102.305 217.796L118.224 245.374C118.346 245.58 118.522 245.751 118.734 245.869C118.946 245.987 119.186 246.047 119.43 246.044C119.584 246.069 119.742 246.069 119.896 246.044C121.706 245.406 123.457 244.617 125.129 243.685C125.286 243.599 125.423 243.483 125.533 243.344C125.643 243.205 125.724 243.046 125.77 242.876C125.816 242.706 125.826 242.529 125.801 242.355C125.776 242.181 125.715 242.013 125.622 241.863L112.169 218.52Z" fill="#3056D3"/>
</g>
<path d="M178.261 209C177.871 207.804 177.356 206.733 176.717 205.786C176.089 204.827 175.338 204.011 174.462 203.336C173.598 202.661 172.615 202.146 171.514 201.791C170.413 201.436 169.206 201.259 167.892 201.259C165.738 201.259 163.779 201.815 162.015 202.928C160.251 204.04 158.848 205.68 157.807 207.846C156.765 210.012 156.244 212.67 156.244 215.818C156.244 218.967 156.771 221.624 157.825 223.79C158.878 225.957 160.304 227.596 162.104 228.709C163.903 229.821 165.927 230.378 168.176 230.378C170.259 230.378 172.094 229.934 173.68 229.046C175.278 228.147 176.521 226.88 177.409 225.246C178.309 223.601 178.759 221.666 178.759 219.44L180.108 219.724H169.17V215.818H183.02V219.724C183.02 222.719 182.381 225.323 181.102 227.537C179.836 229.75 178.084 231.467 175.847 232.686C173.621 233.893 171.064 234.497 168.176 234.497C164.956 234.497 162.127 233.74 159.689 232.224C157.262 230.709 155.368 228.555 154.007 225.761C152.658 222.968 151.983 219.653 151.983 215.818C151.983 212.942 152.368 210.355 153.137 208.059C153.918 205.751 155.019 203.786 156.44 202.164C157.86 200.542 159.541 199.299 161.482 198.435C163.424 197.571 165.56 197.139 167.892 197.139C169.81 197.139 171.597 197.429 173.254 198.009C174.923 198.577 176.409 199.388 177.711 200.442C179.025 201.483 180.12 202.732 180.996 204.188C181.872 205.632 182.475 207.236 182.807 209H178.261ZM198.019 234.639C196.291 234.639 194.722 234.314 193.314 233.663C191.905 233 190.787 232.047 189.958 230.804C189.129 229.549 188.715 228.034 188.715 226.259C188.715 224.696 189.023 223.429 189.638 222.459C190.254 221.476 191.077 220.707 192.106 220.151C193.136 219.594 194.273 219.18 195.515 218.908C196.77 218.624 198.031 218.399 199.297 218.233C200.955 218.02 202.298 217.86 203.328 217.754C204.37 217.635 205.127 217.44 205.601 217.168C206.086 216.895 206.329 216.422 206.329 215.747V215.605C206.329 213.853 205.849 212.492 204.89 211.521C203.943 210.551 202.505 210.065 200.576 210.065C198.575 210.065 197.007 210.503 195.871 211.379C194.734 212.255 193.935 213.19 193.474 214.185L189.496 212.764C190.206 211.107 191.153 209.817 192.337 208.893C193.533 207.958 194.835 207.307 196.243 206.94C197.664 206.562 199.061 206.372 200.434 206.372C201.31 206.372 202.316 206.479 203.452 206.692C204.6 206.893 205.707 207.313 206.773 207.952C207.85 208.592 208.743 209.556 209.454 210.847C210.164 212.137 210.519 213.865 210.519 216.031V234H206.329V230.307H206.116C205.831 230.899 205.358 231.532 204.695 232.207C204.032 232.881 203.15 233.455 202.05 233.929C200.949 234.402 199.605 234.639 198.019 234.639ZM198.658 230.875C200.315 230.875 201.712 230.549 202.849 229.898C203.997 229.247 204.861 228.407 205.441 227.377C206.033 226.347 206.329 225.264 206.329 224.128V220.293C206.151 220.506 205.76 220.701 205.157 220.879C204.565 221.044 203.878 221.192 203.097 221.322C202.328 221.441 201.576 221.547 200.842 221.642C200.12 221.725 199.534 221.796 199.084 221.855C197.995 221.997 196.977 222.228 196.03 222.548C195.095 222.855 194.338 223.323 193.758 223.95C193.189 224.566 192.905 225.406 192.905 226.472C192.905 227.928 193.444 229.028 194.521 229.774C195.61 230.508 196.989 230.875 198.658 230.875ZM218.735 234V197.636H222.926V211.06H223.281C223.589 210.586 224.015 209.982 224.559 209.249C225.116 208.503 225.909 207.84 226.939 207.26C227.98 206.668 229.389 206.372 231.164 206.372C233.461 206.372 235.485 206.946 237.237 208.094C238.989 209.243 240.356 210.87 241.338 212.977C242.321 215.084 242.812 217.57 242.812 220.435C242.812 223.323 242.321 225.826 241.338 227.945C240.356 230.052 238.995 231.686 237.255 232.846C235.515 233.994 233.508 234.568 231.235 234.568C229.484 234.568 228.081 234.278 227.027 233.698C225.974 233.106 225.163 232.437 224.595 231.692C224.027 230.934 223.589 230.307 223.281 229.81H222.784V234H218.735ZM222.855 220.364C222.855 222.423 223.157 224.24 223.76 225.815C224.364 227.377 225.246 228.602 226.406 229.49C227.566 230.366 228.986 230.804 230.667 230.804C232.419 230.804 233.881 230.342 235.053 229.419C236.237 228.484 237.124 227.229 237.716 225.655C238.32 224.069 238.622 222.305 238.622 220.364C238.622 218.446 238.326 216.718 237.734 215.179C237.154 213.628 236.272 212.403 235.088 211.504C233.917 210.592 232.443 210.136 230.667 210.136C228.963 210.136 227.53 210.568 226.37 211.433C225.21 212.285 224.334 213.48 223.743 215.019C223.151 216.546 222.855 218.328 222.855 220.364ZM249.222 234V206.727H253.27V210.847H253.554C254.051 209.497 254.951 208.402 256.253 207.562C257.555 206.721 259.023 206.301 260.657 206.301C260.964 206.301 261.349 206.307 261.811 206.319C262.272 206.331 262.622 206.348 262.858 206.372V210.634C262.716 210.598 262.391 210.545 261.882 210.474C261.385 210.391 260.858 210.349 260.301 210.349C258.976 210.349 257.792 210.628 256.75 211.184C255.721 211.728 254.904 212.486 254.3 213.457C253.708 214.415 253.412 215.51 253.412 216.741V234H249.222ZM267.825 234V206.727H272.016V234H267.825ZM269.956 202.182C269.139 202.182 268.435 201.904 267.843 201.347C267.263 200.791 266.973 200.122 266.973 199.341C266.973 198.56 267.263 197.891 267.843 197.335C268.435 196.778 269.139 196.5 269.956 196.5C270.773 196.5 271.471 196.778 272.051 197.335C272.643 197.891 272.939 198.56 272.939 199.341C272.939 200.122 272.643 200.791 272.051 201.347C271.471 201.904 270.773 202.182 269.956 202.182ZM291.125 234.568C288.498 234.568 286.231 233.988 284.325 232.828C282.431 231.656 280.969 230.023 279.939 227.928C278.921 225.821 278.412 223.37 278.412 220.577C278.412 217.783 278.921 215.321 279.939 213.19C280.969 211.048 282.401 209.379 284.236 208.183C286.083 206.976 288.237 206.372 290.699 206.372C292.12 206.372 293.522 206.609 294.907 207.082C296.292 207.556 297.553 208.325 298.689 209.391C299.826 210.444 300.731 211.841 301.406 213.581C302.081 215.321 302.418 217.464 302.418 220.009V221.784H281.395V218.162H298.157C298.157 216.623 297.849 215.25 297.233 214.043C296.63 212.835 295.766 211.882 294.641 211.184C293.528 210.486 292.214 210.136 290.699 210.136C289.03 210.136 287.586 210.551 286.367 211.379C285.159 212.196 284.23 213.261 283.579 214.575C282.928 215.889 282.603 217.298 282.603 218.801V221.216C282.603 223.276 282.958 225.022 283.668 226.454C284.39 227.874 285.39 228.957 286.669 229.703C287.947 230.437 289.433 230.804 291.125 230.804C292.226 230.804 293.221 230.65 294.108 230.342C295.008 230.023 295.783 229.549 296.434 228.922C297.085 228.283 297.588 227.49 297.944 226.543L301.992 227.679C301.566 229.052 300.85 230.259 299.843 231.301C298.837 232.331 297.594 233.136 296.115 233.716C294.635 234.284 292.972 234.568 291.125 234.568ZM312.983 197.636V234H308.792V197.636H312.983ZM332.447 234H321.226V197.636H332.944C336.472 197.636 339.49 198.364 342 199.82C344.509 201.264 346.433 203.342 347.77 206.053C349.108 208.751 349.777 211.983 349.777 215.747C349.777 219.535 349.102 222.796 347.753 225.531C346.403 228.253 344.438 230.348 341.858 231.816C339.277 233.272 336.14 234 332.447 234ZM325.629 230.094H332.163C335.17 230.094 337.662 229.514 339.638 228.354C341.615 227.194 343.089 225.542 344.059 223.4C345.03 221.257 345.515 218.706 345.515 215.747C345.515 212.812 345.036 210.284 344.077 208.165C343.118 206.035 341.686 204.401 339.78 203.265C337.875 202.117 335.501 201.543 332.66 201.543H325.629V230.094ZM364.621 234.639C362.892 234.639 361.324 234.314 359.915 233.663C358.507 233 357.388 232.047 356.559 230.804C355.731 229.549 355.317 228.034 355.317 226.259C355.317 224.696 355.624 223.429 356.24 222.459C356.855 221.476 357.678 220.707 358.708 220.151C359.738 219.594 360.874 219.18 362.117 218.908C363.372 218.624 364.632 218.399 365.899 218.233C367.556 218.02 368.9 217.86 369.93 217.754C370.971 217.635 371.729 217.44 372.202 217.168C372.688 216.895 372.93 216.422 372.93 215.747V215.605C372.93 213.853 372.451 212.492 371.492 211.521C370.545 210.551 369.107 210.065 367.177 210.065C365.177 210.065 363.608 210.503 362.472 211.379C361.336 212.255 360.537 213.19 360.075 214.185L356.098 212.764C356.808 211.107 357.755 209.817 358.939 208.893C360.134 207.958 361.436 207.307 362.845 206.94C364.265 206.562 365.662 206.372 367.035 206.372C367.911 206.372 368.917 206.479 370.054 206.692C371.202 206.893 372.309 207.313 373.374 207.952C374.451 208.592 375.345 209.556 376.055 210.847C376.765 212.137 377.121 213.865 377.121 216.031V234H372.93V230.307H372.717C372.433 230.899 371.96 231.532 371.297 232.207C370.634 232.881 369.752 233.455 368.651 233.929C367.55 234.402 366.207 234.639 364.621 234.639ZM365.26 230.875C366.917 230.875 368.314 230.549 369.45 229.898C370.598 229.247 371.462 228.407 372.042 227.377C372.634 226.347 372.93 225.264 372.93 224.128V220.293C372.753 220.506 372.362 220.701 371.758 220.879C371.166 221.044 370.48 221.192 369.699 221.322C368.929 221.441 368.178 221.547 367.444 221.642C366.722 221.725 366.136 221.796 365.686 221.855C364.597 221.997 363.579 222.228 362.632 222.548C361.697 222.855 360.939 223.323 360.359 223.95C359.791 224.566 359.507 225.406 359.507 226.472C359.507 227.928 360.046 229.028 361.123 229.774C362.212 230.508 363.591 230.875 365.26 230.875ZM388.959 197.636V234H384.769V197.636H388.959ZM396.634 234V206.727H400.824V234H396.634ZM398.765 202.182C397.948 202.182 397.244 201.904 396.652 201.347C396.072 200.791 395.782 200.122 395.782 199.341C395.782 198.56 396.072 197.891 396.652 197.335C397.244 196.778 397.948 196.5 398.765 196.5C399.581 196.5 400.28 196.778 400.86 197.335C401.452 197.891 401.748 198.56 401.748 199.341C401.748 200.122 401.452 200.791 400.86 201.347C400.28 201.904 399.581 202.182 398.765 202.182Z" fill="black"/>
<defs>
<clipPath id="clip0_0_1">
<rect width="274" height="67" fill="white" transform="translate(74 181)"/>
</clipPath>
</defs>
</svg>
